<?xml version="1.0" standalone="no"?>
<!DOCTYPE svg PUBLIC "-//W3C//DTD SVG 20010904//EN"
 "http://www.w3.org/TR/2001/REC-SVG-20010904/DTD/svg10.dtd">
<svg version="1.0" xmlns="http://www.w3.org/2000/svg"
 width="502.000000pt" height="502.000000pt" viewBox="0 0 502.000000 502.000000"
 preserveAspectRatio="xMidYMid meet">
<metadata>
Created by potrace 1.14, written by Peter Selinger 2001-2017
</metadata>
<g transform="translate(0.000000,502.000000) scale(0.100000,-0.100000)"
fill="#000000" stroke="none">
<path d="M2378 4875 c-2 -1 -37 -5 -78 -8 -41 -4 -84 -9 -96 -11 -12 -2 -45
-7 -75 -11 -30 -3 -72 -11 -94 -17 -22 -6 -49 -12 -60 -14 -20 -4 -27 -5 -80
-18 -33 -9 -141 -43 -165 -53 -8 -3 -17 -7 -20 -8 -3 -1 -20 -6 -37 -10 -18
-4 -33 -11 -33 -15 0 -3 -6 -7 -13 -7 -28 0 -359 -169 -377 -193 -3 -3 -12
-10 -20 -14 -38 -18 -125 -79 -145 -101 -5 -6 -17 -16 -26 -21 -34 -19 -105
-82 -213 -189 -118 -118 -145 -148 -210 -235 -22 -30 -43 -57 -47 -60 -14 -13
-114 -175 -111 -182 1 -4 -2 -8 -7 -8 -18 0 -190 -374 -194 -421 -1 -11 -6
-19 -11 -19 -5 0 -6 -3 -3 -7 4 -3 2 -12 -4 -20 -6 -7 -8 -13 -4 -13 4 0 2 -7
-5 -15 -7 -8 -10 -15 -7 -15 4 0 -1 -19 -9 -42 -25 -71 -68 -301 -80 -428 -9
-103 -3 -399 11 -500 3 -25 8 -58 10 -75 4 -26 16 -90 29 -150 25 -117 96
-335 132 -407 14 -27 25 -51 26 -55 8 -36 33 -81 42 -76 6 3 8 3 4 -2 -7 -7
22 -66 92 -185 18 -30 35 -57 39 -60 3 -3 12 -17 20 -32 8 -16 18 -28 23 -28
4 0 8 -7 8 -15 0 -8 4 -15 8 -15 4 0 15 -12 24 -28 9 -15 25 -36 35 -47 10
-11 43 -49 73 -84 64 -76 130 -141 219 -220 35 -31 70 -62 78 -69 7 -7 13 -11
13 -8 0 3 8 -2 18 -11 36 -34 72 -63 80 -63 5 0 17 -8 28 -17 24 -21 32 -27
144 -92 47 -28 89 -50 94 -50 5 0 13 -6 18 -15 5 -9 16 -16 24 -16 8 0 35 -11
60 -25 25 -14 51 -25 59 -25 7 0 15 -4 17 -9 4 -11 298 -112 308 -106 5 3 11
1 14 -4 3 -5 20 -12 38 -15 33 -6 58 -11 101 -21 12 -3 38 -8 57 -11 19 -3 49
-8 65 -10 174 -30 435 -34 635 -9 73 9 116 16 135 21 11 3 34 7 50 10 17 3 66
15 110 26 44 11 85 21 90 22 19 4 60 17 80 26 11 5 47 18 80 30 124 44 364
162 373 183 2 4 9 7 16 7 6 0 21 7 31 15 11 8 74 53 140 100 66 46 142 105
169 130 27 25 53 45 58 45 4 0 8 7 8 15 0 8 4 15 9 15 15 0 148 142 216 230
22 29 52 66 68 83 15 18 27 37 27 44 0 7 4 13 9 13 5 0 13 9 16 20 3 11 12 26
18 32 16 16 127 206 127 217 0 4 11 28 24 53 24 45 97 222 100 242 1 6 4 16 8
21 3 6 13 39 23 75 9 36 19 72 22 80 3 8 7 22 9 30 5 31 15 75 19 90 2 8 7 31
10 50 3 19 10 60 15 90 5 30 12 90 15 134 3 43 8 82 11 87 3 5 1 9 -4 9 -5 0
-6 17 -3 38 5 31 7 157 1 157 0 0 -3 36 -6 80 -4 85 -10 138 -17 170 -2 11 -8
43 -11 70 -10 68 -62 272 -87 343 -68 188 -188 440 -235 493 -8 8 -14 21 -14
27 0 7 -4 12 -10 12 -5 0 -10 6 -10 13 0 8 -9 22 -20 32 -11 10 -20 22 -20 27
0 9 -12 26 -47 64 -12 13 -20 24 -17 24 11 0 -100 126 -195 221 -154 154 -357
308 -516 393 -27 15 -57 31 -65 36 -22 14 -213 102 -225 104 -5 1 -35 11 -65
23 -30 12 -68 25 -85 29 -34 8 -35 9 -55 17 -14 5 -183 48 -205 51 -5 1 -16 5
-22 9 -7 5 -13 4 -13 -2 0 -7 -8 -7 -23 -2 -13 5 -48 12 -78 16 -30 4 -67 9
-84 12 -33 5 -372 12 -377 8z"/>
</g>
</svg>
